<svg width="19" height="21" viewBox="0 0 19 21" fill="none" xmlns="http://www.w3.org/2000/svg">
<path d="M16.6255 20.3333H2.62549C2.09506 20.3333 1.58635 20.1226 1.21127 19.7476C0.836202 19.3725 0.625488 18.8638 0.625488 18.3333V17.3333C0.627076 16.0077 1.15437 14.7369 2.09171 13.7996C3.02905 12.8622 4.29989 12.3349 5.62549 12.3333H13.6255C14.9511 12.3349 16.2219 12.8622 17.1593 13.7996C18.0966 14.7369 18.6239 16.0077 18.6255 17.3333V18.3333C18.6255 18.8638 18.4148 19.3725 18.0397 19.7476C17.6646 20.1226 17.1559 20.3333 16.6255 20.3333ZM9.62549 10.3333C8.63658 10.3333 7.66988 10.0401 6.84764 9.49069C6.02539 8.94129 5.38453 8.16039 5.00609 7.24676C4.62765 6.33313 4.52864 5.3278 4.72156 4.35789C4.91449 3.38799 5.39069 2.49707 6.08995 1.79781C6.78922 1.09855 7.68013 0.622345 8.65004 0.429419C9.61994 0.236493 10.6253 0.33551 11.5389 0.713948C12.4525 1.09239 13.2334 1.73325 13.7828 2.55549C14.3322 3.37774 14.6255 4.34444 14.6255 5.33335C14.6239 6.65894 14.0966 7.92979 13.1593 8.86712C12.2219 9.80446 10.9511 10.3318 9.62549 10.3333Z" fill="#151D53"/>
</svg>
