<svg width="16" height="21" viewBox="0 0 16 21" fill="none" xmlns="http://www.w3.org/2000/svg">
<path d="M15 20.5H3C2.20435 20.5 1.44129 20.1839 0.878679 19.6213C0.31607 19.0587 0 18.2956 0 17.5L0 3.5C0 2.70435 0.31607 1.94129 0.878679 1.37868C1.44129 0.81607 2.20435 0.5 3 0.5L14 0.5C14.5304 0.5 15.0391 0.710714 15.4142 1.08579C15.7893 1.46086 16 1.96957 16 2.5V15.49C16.0006 15.6541 15.9618 15.816 15.887 15.962L15.342 17.053C15.2731 17.1921 15.2372 17.3453 15.2372 17.5005C15.2372 17.6557 15.2731 17.8089 15.342 17.948L15.886 19.035C15.9617 19.1783 16.0008 19.338 16 19.5C16 19.7652 15.8946 20.0196 15.7071 20.2071C15.5196 20.3946 15.2652 20.5 15 20.5ZM3 16.5C2.73478 16.5 2.48043 16.6054 2.29289 16.7929C2.10536 16.9804 2 17.2348 2 17.5C2 17.7652 2.10536 18.0196 2.29289 18.2071C2.48043 18.3946 2.73478 18.5 3 18.5H13.407C13.1791 17.8528 13.1791 17.1472 13.407 16.5H3ZM6 5.5C5.73478 5.5 5.48043 5.60536 5.29289 5.79289C5.10535 5.98043 5 6.23478 5 6.5C5 6.76522 5.10535 7.01957 5.29289 7.20711C5.48043 7.39464 5.73478 7.5 6 7.5H9.99999C10.2652 7.5 10.5196 7.39464 10.7071 7.20711C10.8946 7.01957 11 6.76522 11 6.5C11 6.23478 10.8946 5.98043 10.7071 5.79289C10.5196 5.60536 10.2652 5.5 9.99999 5.5H6Z" fill="#151D53"/>
</svg>
