<svg width="18" height="19" viewBox="0 0 18 19" fill="none" xmlns="http://www.w3.org/2000/svg">
<path d="M10.2 0.884L17.2 5.924C17.4484 6.10284 17.65 6.33475 17.7889 6.60135C17.9277 6.86795 18 7.16193 18 7.46V16.58C18 17.0892 17.7893 17.5776 17.4142 17.9376C17.0391 18.2977 16.5304 18.5 16 18.5H2C1.46957 18.5 0.960859 18.2977 0.585786 17.9376C0.210714 17.5776 0 17.0892 0 16.58V7.46C0 7.16193 0.0722902 6.86795 0.211146 6.60135C0.350001 6.33475 0.551608 6.10284 0.8 5.924L7.8 0.884C8.14619 0.634742 8.56726 0.5 9 0.5C9.43274 0.5 9.85381 0.634742 10.2 0.884Z" fill="#151D53"/>
</svg>
