<svg width="21" height="19" viewBox="0 0 21 19" fill="none" xmlns="http://www.w3.org/2000/svg">
<path d="M10.4998 18.5C10.2552 18.5002 10.0161 18.4269 9.81283 18.2894L7.22854 16.5446H3.56078C2.77206 16.5446 2.01565 16.2276 1.45794 15.6634C0.900231 15.0993 0.586914 14.3341 0.586914 13.5362L0.586914 3.50836C0.586914 2.71049 0.900231 1.9453 1.45794 1.38113C2.01565 0.816951 2.77206 0.5 3.56078 0.5L17.4388 0.5C18.2275 0.5 18.9839 0.816951 19.5416 1.38113C20.0993 1.9453 20.4127 2.71049 20.4127 3.50836V13.5362C20.4127 14.3341 20.0993 15.0993 19.5416 15.6634C18.9839 16.2276 18.2275 16.5446 17.4388 16.5446H13.771L11.1848 18.2894C10.9819 18.4264 10.7436 18.4996 10.4998 18.5ZM13.9693 7.5195C13.6752 7.5195 13.3877 7.60772 13.1432 7.773C12.8987 7.93828 12.7081 8.1732 12.5956 8.44805C12.483 8.72291 12.4536 9.02534 12.5109 9.31713C12.5683 9.60891 12.7099 9.87693 12.9179 10.0873C13.1258 10.2977 13.3908 10.4409 13.6792 10.499C13.9676 10.557 14.2666 10.5272 14.5383 10.4134C14.81 10.2995 15.0422 10.1067 15.2056 9.85935C15.369 9.61199 15.4562 9.32117 15.4562 9.02368C15.4562 8.62474 15.2996 8.24215 15.0207 7.96006C14.7419 7.67797 14.3637 7.5195 13.9693 7.5195ZM7.03028 7.5195C6.7362 7.5195 6.44871 7.60772 6.20419 7.773C5.95966 7.93828 5.76908 8.1732 5.65654 8.44805C5.544 8.72291 5.51455 9.02534 5.57192 9.31713C5.6293 9.60891 5.77091 9.87693 5.97886 10.0873C6.18681 10.2977 6.45176 10.4409 6.7402 10.499C7.02863 10.557 7.32761 10.5272 7.59931 10.4134C7.87101 10.2995 8.10323 10.1067 8.26662 9.85935C8.43001 9.61199 8.51721 9.32117 8.51721 9.02368C8.51721 8.62474 8.36056 8.24215 8.0817 7.96006C7.80285 7.67797 7.42464 7.5195 7.03028 7.5195Z" fill="#151D53"/>
</svg>
